<?xml version="1.0" encoding="utf-8" standalone="no"?>
<!DOCTYPE svg PUBLIC "-//W3C//DTD SVG 1.1//EN"
  "http://www.w3.org/Graphics/SVG/1.1/DTD/svg11.dtd">
<!-- Created with matplotlib (https://matplotlib.org/) -->
<svg height="345.6pt" version="1.1" viewBox="0 0 460.8 345.6" width="460.8pt" xmlns="http://www.w3.org/2000/svg" xmlns:xlink="http://www.w3.org/1999/xlink">
 <defs>
  <style type="text/css">
*{stroke-linecap:butt;stroke-linejoin:round;}
  </style>
 </defs>
 <g id="figure_1">
  <g id="patch_1">
   <path d="M 0 345.6 
L 460.8 345.6 
L 460.8 0 
L 0 0 
z
" style="fill:#f0f0f0;"/>
  </g>
  <g id="axes_1">
   <g id="patch_2">
    <path d="M 36.864 321.408 
L 437.76 321.408 
L 437.76 41.472 
L 36.864 41.472 
z
" style="fill:#f0f0f0;"/>
   </g>
   <g id="matplotlib.axis_1">
    <g id="xtick_1">
     <g id="line2d_1">
      <path clip-path="url(#pb1448d27b1)" d="M 103.992668 321.408 
L 103.992668 41.472 
" style="fill:none;stroke:#cbcbcb;"/>
     </g>
     <g id="line2d_2"/>
    </g>
    <g id="xtick_2">
     <g id="line2d_3">
      <path clip-path="url(#pb1448d27b1)" d="M 172.985203 321.408 
L 172.985203 41.472 
" style="fill:none;stroke:#cbcbcb;"/>
     </g>
     <g id="line2d_4"/>
    </g>
    <g id="xtick_3">
     <g id="line2d_5">
      <path clip-path="url(#pb1448d27b1)" d="M 241.977739 321.408 
L 241.977739 41.472 
" style="fill:none;stroke:#cbcbcb;"/>
     </g>
     <g id="line2d_6"/>
    </g>
    <g id="xtick_4">
     <g id="line2d_7">
      <path clip-path="url(#pb1448d27b1)" d="M 310.970274 321.408 
L 310.970274 41.472 
" style="fill:none;stroke:#cbcbcb;"/>
     </g>
     <g id="line2d_8"/>
    </g>
    <g id="xtick_5">
     <g id="line2d_9">
      <path clip-path="url(#pb1448d27b1)" d="M 379.962809 321.408 
L 379.962809 41.472 
" style="fill:none;stroke:#cbcbcb;"/>
     </g>
     <g id="line2d_10"/>
    </g>
   </g>
   <g id="matplotlib.axis_2">
    <g id="ytick_1">
     <g id="line2d_11">
      <path clip-path="url(#pb1448d27b1)" d="M 36.864 321.408 
L 437.76 321.408 
" style="fill:none;stroke:#cbcbcb;"/>
     </g>
     <g id="line2d_12"/>
    </g>
    <g id="ytick_2">
     <g id="line2d_13">
      <path clip-path="url(#pb1448d27b1)" d="M 36.864 274.635068 
L 437.76 274.635068 
" style="fill:none;stroke:#cbcbcb;"/>
     </g>
     <g id="line2d_14"/>
    </g>
    <g id="ytick_3">
     <g id="line2d_15">
      <path clip-path="url(#pb1448d27b1)" d="M 36.864 227.862135 
L 437.76 227.862135 
" style="fill:none;stroke:#cbcbcb;"/>
     </g>
     <g id="line2d_16"/>
    </g>
    <g id="ytick_4">
     <g id="line2d_17">
      <path clip-path="url(#pb1448d27b1)" d="M 36.864 181.089203 
L 437.76 181.089203 
" style="fill:none;stroke:#cbcbcb;"/>
     </g>
     <g id="line2d_18"/>
    </g>
    <g id="ytick_5">
     <g id="line2d_19">
      <path clip-path="url(#pb1448d27b1)" d="M 36.864 134.316271 
L 437.76 134.316271 
" style="fill:none;stroke:#cbcbcb;"/>
     </g>
     <g id="line2d_20"/>
    </g>
    <g id="ytick_6">
     <g id="line2d_21">
      <path clip-path="url(#pb1448d27b1)" d="M 36.864 87.543338 
L 437.76 87.543338 
" style="fill:none;stroke:#cbcbcb;"/>
     </g>
     <g id="line2d_22"/>
    </g>
   </g>
   <g id="patch_3">
    <path clip-path="url(#pb1448d27b1)" d="M 55.086545 321.408 
L 107.150961 321.408 
L 107.150961 307.37612 
L 55.086545 307.37612 
z
" style="fill:#008fd5;"/>
   </g>
   <g id="patch_4">
    <path clip-path="url(#pb1448d27b1)" d="M 107.150961 321.408 
L 159.215377 321.408 
L 159.215377 223.184842 
L 107.150961 223.184842 
z
" style="fill:#008fd5;"/>
   </g>
   <g id="patch_5">
    <path clip-path="url(#pb1448d27b1)" d="M 159.215377 321.408 
L 211.279792 321.408 
L 211.279792 101.575218 
L 159.215377 101.575218 
z
" style="fill:#008fd5;"/>
   </g>
   <g id="patch_6">
    <path clip-path="url(#pb1448d27b1)" d="M 211.279792 321.408 
L 263.344208 321.408 
L 263.344208 54.802286 
L 211.279792 54.802286 
z
" style="fill:#008fd5;"/>
   </g>
   <g id="patch_7">
    <path clip-path="url(#pb1448d27b1)" d="M 263.344208 321.408 
L 315.408623 321.408 
L 315.408623 120.284391 
L 263.344208 120.284391 
z
" style="fill:#008fd5;"/>
   </g>
   <g id="patch_8">
    <path clip-path="url(#pb1448d27b1)" d="M 315.408623 321.408 
L 367.473039 321.408 
L 367.473039 213.830256 
L 315.408623 213.830256 
z
" style="fill:#008fd5;"/>
   </g>
   <g id="patch_9">
    <path clip-path="url(#pb1448d27b1)" d="M 367.473039 321.408 
L 419.537455 321.408 
L 419.537455 293.344241 
L 367.473039 293.344241 
z
" style="fill:#008fd5;"/>
   </g>
   <g id="patch_10">
    <path d="M 36.864 321.408 
L 36.864 41.472 
" style="fill:none;stroke:#f0f0f0;stroke-linecap:square;stroke-linejoin:miter;stroke-width:3;"/>
   </g>
   <g id="patch_11">
    <path d="M 437.76 321.408 
L 437.76 41.472 
" style="fill:none;stroke:#f0f0f0;stroke-linecap:square;stroke-linejoin:miter;stroke-width:3;"/>
   </g>
   <g id="patch_12">
    <path d="M 36.864 321.408 
L 437.76 321.408 
" style="fill:none;stroke:#f0f0f0;stroke-linecap:square;stroke-linejoin:miter;stroke-width:3;"/>
   </g>
   <g id="patch_13">
    <path d="M 36.864 41.472 
L 437.76 41.472 
" style="fill:none;stroke:#f0f0f0;stroke-linecap:square;stroke-linejoin:miter;stroke-width:3;"/>
   </g>
  </g>
 </g>
 <defs>
  <clipPath id="pb1448d27b1">
   <rect height="279.936" width="400.896" x="36.864" y="41.472"/>
  </clipPath>
 </defs>
</svg>
