<svg version="1.1" viewBox="0.0 0.0 751.8057742782153 224.60629921259843" fill="none" stroke="none" stroke-linecap="square" stroke-miterlimit="10" xmlns:xlink="http://www.w3.org/1999/xlink" xmlns="http://www.w3.org/2000/svg"><clipPath id="p.0"><path d="m0 0l751.8058 0l0 224.6063l-751.8058 0l0 -224.6063z" clip-rule="nonzero"/></clipPath><g clip-path="url(#p.0)"><path fill="#000000" fill-opacity="0.0" d="m0 0l751.8058 0l0 224.6063l-751.8058 0z" fill-rule="evenodd"/><path fill="#000000" fill-opacity="0.0" d="m-116.61942 -43.375328l960.0 0l0 288.0l-960.0 0z" fill-rule="evenodd"/><path fill="#1155cc" d="m45.386497 56.544044l21.6875 0l-1.984375 9.328125q11.84375 -10.9375 24.609375 -10.9375q16.015625 0 18.46875 13.6875q2.46875 13.671875 -1.0625 30.28125l-6.03125 28.375q-4.5625 21.484367 -13.96875 34.765617q-9.40625 13.265625 -25.421875 13.265625q-10.328125 0 -17.65625 -10.34375l-10.046875 47.21875l-21.6875 0l33.09375 -155.64062zm15.671875 101.73437q7.5 0 11.234375 -7.59375q3.734375 -7.59375 7.09375 -23.406242l6.03125 -28.375q2.765625 -12.96875 1.8125 -19.953125q-0.9375 -7.0 -8.640625 -7.0q-7.5 0 -16.09375 6.078125l-15.9375 74.98437q5.984375 5.265625 14.5 5.265625zm45.275314 28.171875q12.15625 0 17.109375 -1.828125q4.9531326 -1.8125 6.0312576 -6.890625q0.515625 -2.421875 0.09375 -21.46875l-2.2968826 -99.71874l21.875023 0l-2.796875 87.54687l33.8125 -87.54687l21.890625 0l-54.25 123.62499q-5.46875 12.359375 -15.718765 17.625q-10.234383 5.28125 -26.656258 5.28125l-2.625 0l3.53125 -16.625zm106.659996 23.515625q-17.03125 0 -26.015625 -5.375q-8.984375 -5.375 -6.578125 -16.71875q1.640625 -7.703125 7.609375 -13.375q5.96875 -5.671875 14.0 -9.125q-5.125 -1.625 -7.328125 -5.0625q-2.203125 -3.453125 -1.34375 -7.5q1.296875 -6.078125 5.28125 -10.53125q3.984375 -4.46875 12.203125 -10.75q-5.765625 -5.2656174 -7.40625 -13.265617q-1.640625 -8.015625 1.25 -21.59375q4.34375 -20.46875 15.0 -31.09375q10.671875 -10.640625 26.890625 -10.640625q9.3125 0 14.5 3.25q5.203125 3.234375 6.859375 9.71875q1.890625 -2.234375 7.25 -5.984375q5.359375 -3.75 11.15625 -6.1875l3.53125 -1.40625l2.5 13.984375q-4.21875 0.796875 -11.984375 3.4375q-7.75 2.640625 -9.453125 4.046875q0.625 3.65625 0.359375 10.140625q-0.265625 6.484375 -1.296875 11.34375q-4.078125 19.25 -13.84375 29.890625q-9.765625 10.640617 -27.1875 10.640617q-5.46875 0 -10.859375 -1.40625q-5.046875 5.671875 -5.734375 8.90625q-0.46875 2.234375 1.578125 3.546875q2.046875 1.3125 7.03125 1.71875l17.890625 1.625q13.53125 1.21875 18.703125 8.3125q5.1875 7.09375 2.390625 20.265625q-6.21875 29.1875 -46.953125 29.1875zm19.1875 -87.34374q8.71875 0 12.640625 -6.078125q3.921875 -6.09375 6.859375 -19.875q2.96875 -13.984375 1.6875 -20.359375q-1.265625 -6.390625 -9.78125 -6.390625q-8.515625 0 -12.8125 6.390625q-4.296875 6.375 -7.265625 20.359375q-2.671875 12.578125 -1.15625 19.265625q1.515625 6.6875 9.828125 6.6875zm-13.9375 70.31249q11.546875 0 17.59375 -2.734375q6.0625 -2.734375 7.34375 -8.8125q1.203125 -5.671875 -1.65625 -8.40625q-2.859375 -2.734375 -11.796875 -3.546875l-18.109375 -1.625q-5.15625 4.25 -8.078125 7.484375q-2.90625 3.25 -3.734375 7.109375q-1.15625 5.46875 2.859375 8.0q4.015625 2.53125 15.578125 2.53125zm85.73361 -136.39062l21.6875 0l-3.546875 16.625q8.203125 -9.9375 15.4375 -13.984375q7.25 -4.046875 14.34375 -4.046875q1.828125 0 3.40625 0.203125l-5.078125 23.90625q-5.96875 -2.4375 -11.4375 -2.4375q-5.28125 0 -9.96875 2.546875q-4.6875 2.53125 -9.890625 8.8125l-18.171875 85.51562l-21.6875 0l24.90625 -117.14062zm60.271393 118.76562q-6.6875 0 -11.234375 -3.84375q-4.546875 -3.859375 -6.25 -10.140625q-1.703125 -6.28125 -0.25 -13.171875q2.9375 -13.78125 10.640625 -22.390617q7.703125 -8.625 17.890625 -13.6875q10.203125 -5.0625 27.796875 -11.546875l1.765625 -8.3125q2.453125 -11.546875 1.140625 -16.3125q-1.3125 -4.765625 -8.40625 -4.765625q-12.375 0 -15.90625 16.625l-1.25 5.875l-21.296875 -0.8125q4.546875 -19.453125 15.0 -28.671875q10.46875 -9.21875 28.296875 -9.21875q16.828125 0 22.46875 9.21875q5.65625 9.21875 1.6875 27.859375l-11.375 53.499992q-2.796875 13.171875 -3.96875 28.171875l-19.859375 0q0.234375 -11.546875 0.828125 -17.21875q-4.109375 7.890625 -11.25 13.375q-7.140625 5.46875 -16.46875 5.46875zm12.46875 -18.640625q4.25 0 9.015625 -3.34375q4.765625 -3.34375 7.25 -6.390625l7.0625 -33.234367q-9.75 4.859375 -15.265625 8.40625q-5.515625 3.546875 -9.65625 8.218742q-4.125 4.65625 -5.5 11.140625q-1.546875 7.296875 0.234375 11.25q1.796875 3.953125 6.859375 3.953125zm78.03473 -100.12499l20.0625 0l-2.375 11.15625q7.265625 -6.484375 14.953125 -9.828125q7.703125 -3.34375 15.40625 -3.34375q14.9999695 0 15.9218445 14.78125q15.296875 -14.78125 32.3125 -14.78125q9.125 0 13.46875 6.6875q4.359375 6.6875 1.4375 20.46875l-19.5625 91.99999l-19.859375 0l19.25 -90.59374q1.71875 -8.09375 -0.25 -11.234375q-1.953125 -3.140625 -6.8125 -3.140625q-4.46875 0 -9.875 2.53125q-5.390625 2.53125 -10.40625 6.984375l-0.71875 3.453125l-19.56247 91.99999l-19.859375 0l19.25 -90.59374q1.71875 -8.09375 -0.25 -11.234375q-1.953125 -3.140625 -6.8125 -3.140625q-4.265625 0 -9.671875 2.53125q-5.390625 2.53125 -10.609375 6.984375l-20.28125 95.45312l-20.0625 0l24.90625 -117.14062zm165.47806 -18.640625q-0.53125 0.609375 -12.875 2.84375q-12.328125 2.21875 -16.953125 3.03125l3.484375 -16.40625q25.96875 -5.875 37.640625 -17.84375l16.421875 0l-34.890625 164.15625l-21.6875 0l28.859375 -135.78125zm80.25189 0q-0.53125 0.609375 -12.875 2.84375q-12.328125 2.21875 -16.953125 3.03125l3.484375 -16.40625q25.96875 -5.875 37.640625 -17.84375l16.421875 0l-34.890625 164.15625l-21.6875 0l28.859375 -135.78125z" fill-rule="nonzero"/><path fill="#1155cc" d="m496.74014 47.82677l8.48819 -34.110237l25.4646 0l-8.48822 34.110237z" fill-rule="evenodd"/><path fill="#1155cc" d="m517.9685 47.82677l5.629944 -22.519684l22.77948 0l-5.629883 22.519684z" fill-rule="evenodd"/><path fill="#1155cc" d="m475.5092 47.82152l4.566925 -18.267715l23.84253 0l-4.566925 18.267715z" fill-rule="evenodd"/><path fill="#1155cc" d="m451.99213 47.8084l3.0472412 -12.188976l25.362213 0l-3.0472412 12.188976z" fill-rule="evenodd"/><path fill="#1155cc" d="m540.1732 47.824146l2.5669556 -10.267715l25.84253 0l-2.5669556 10.267715z" fill-rule="evenodd"/></g></svg>